HIERARCHY
ROOT Hips
{
	OFFSET 0.00000 0.00000 0.00000
	CHANNELS 6 Xposition Yposition Zposition Zrotation Yrotation Xrotation 
	JOINT LHipJoint
	{
		OFFSET 0 0 0
		CHANNELS 3 Zrotation Yrotation Xrotation
		JOINT LeftHip
		{
			OFFSET 1.57358 -1.76629 0.73362
			CHANNELS 3 Zrotation Yrotation Xrotation
			JOINT LeftKnee
			{
				OFFSET 2.40600 -6.61045 0.00000
				CHANNELS 3 Zrotation Yrotation Xrotation
				JOINT LeftAnkle
				{
					OFFSET 2.66168 -7.31291 0.00000
					CHANNELS 3 Zrotation Yrotation Xrotation
					JOINT LeftToe
					{
						OFFSET 0.20870 -0.57341 2.12506
						CHANNELS 3 Zrotation Yrotation Xrotation
						End Site
						{
							OFFSET 0.00000 -0.00000 1.10557
						}
					}
				}
			}
		}
	}
	JOINT RHipJoint
	{
		OFFSET 0 0 0
		CHANNELS 3 Zrotation Yrotation Xrotation
		JOINT RightHip
		{
			OFFSET -1.49299 -1.76629 0.73362
			CHANNELS 3 Zrotation Yrotation Xrotation
			JOINT RightKnee
			{
				OFFSET -2.43663 -6.69460 0.00000
				CHANNELS 3 Zrotation Yrotation Xrotation
				JOINT RightAnkle
				{
					OFFSET -2.62959 -7.22474 0.00000
					CHANNELS 3 Zrotation Yrotation Xrotation
					JOINT RightToe
					{
						OFFSET -0.25784 -0.70841 2.21862
						CHANNELS 3 Zrotation Yrotation Xrotation
						End Site
						{
							OFFSET -0.00000 -0.00000 1.16452
						}
					}
				}
			}
		}
	}
	JOINT lowerback
	{
		OFFSET 0 0 0
		CHANNELS 3 Zrotation Yrotation Xrotation
		JOINT Chest
		{
			OFFSET -0.00034 2.12399 -0.25450
			CHANNELS 3 Zrotation Yrotation Xrotation
			JOINT Chest2
			{
				OFFSET 0.05594 2.14379 -0.03318
				CHANNELS 3 Zrotation Yrotation Xrotation
				JOINT lowerneck
				{
					OFFSET 0 0 0
					CHANNELS 3 Zrotation Yrotation Xrotation
					JOINT Neck
					{
						OFFSET -0.09835 1.62725 0.24211
						CHANNELS 3 Zrotation Yrotation Xrotation
						JOINT Head
						{
							OFFSET 0.10849 1.66041 -0.22648
							CHANNELS 3 Zrotation Yrotation Xrotation
							End Site
							{
								OFFSET 0.04385 1.68267 -0.10541
							}
						}
					}
				}
				JOINT LeftCollar
				{
					OFFSET 0 0 0
					CHANNELS 3 Zrotation Yrotation Xrotation
					JOINT LeftShoulder
					{
						OFFSET 3.29108 0.79398 -0.68179
CHANNELS 3 Zrotation Xrotation Yrotation
						JOINT LeftElbow
						{
OFFSET 0 -5.153100 -0.000000
CHANNELS 3 Zrotation Xrotation Yrotation
							JOINT LeftWrist
							{
OFFSET 0 -3.751380 -0.000000
CHANNELS 3 Zrotation Xrotation Yrotation
								JOINT lhand
								{
									OFFSET 0 0 0
CHANNELS 3 Zrotation Xrotation Yrotation
									JOINT LFingers
									{
OFFSET 0 -0.529170 0.000000
CHANNELS 3 Zrotation Xrotation Yrotation
										End Site
										{
OFFSET 0 -0.426630 0.000000
										}
									}
								}
								JOINT LThumb
								{
OFFSET 0 0.000000 0.000000
CHANNELS 3 Zrotation Xrotation Yrotation
									End Site
									{
OFFSET 0 -0.433150 0.433150
									}
								}
							}
						}
					}
				}
				JOINT RightCollar
				{
					OFFSET 0 0 0
					CHANNELS 3 Zrotation Yrotation Xrotation
					JOINT RightShoulder
					{
						OFFSET -3.07414 1.06285 -0.44338
CHANNELS 3 Zrotation Xrotation Yrotation
						JOINT RightElbow
						{
OFFSET 0 -5.296130 0.000000
CHANNELS 3 Zrotation Xrotation Yrotation
							JOINT RightWrist
							{
OFFSET 0 -3.761440 -0.000000
CHANNELS 3 Zrotation Xrotation Yrotation
								JOINT rhand
								{
									OFFSET 0 0 0
CHANNELS 3 Zrotation Xrotation Yrotation
									JOINT RFingers
									{
OFFSET 0 -0.747320 0.000000
CHANNELS 3 Zrotation Xrotation Yrotation
										End Site
										{
OFFSET 0 -0.602510 0.000000
										}
									}
								}
								JOINT RThumb
								{
OFFSET 0 0.000000 0.000000
CHANNELS 3 Zrotation Xrotation Yrotation
									End Site
									{
OFFSET 0 -0.611710 0.611710
									}
								}
							}
						}
					}
				}
			}
		}
	}
}
MOTION
Frames: 11
Frame Time: 0.008333333333333333
5.307828 16.907401 1.177408 45.485126 -81.716345 -34.207384 0.000000 0.000000 0.000000 -3.385516 -13.225082 -35.140841 2.137860 9.143194 26.247368 -0.160794 13.193506 -16.670371 0.528003 -4.652893 -12.921744 0.000000 0.000000 0.000000 30.055948 1.001271 12.757588 -0.097044 -1.959501 5.395486 -0.628390 -0.565880 -15.178976 -0.356410 -3.829178 10.597382 0.008097 1.000891 5.497362 0.468170 1.355627 -1.460080 0.352134 0.678347 -4.606540 -10.856496 -5.415113 -18.440255 6.377378 -6.076110 20.995665 3.174357 -2.982991 10.299989 0.000000 0.000000 0.000000 -4.497980 9.540442 13.483260 8.911089 -15.018288 1.177227 24.058383 28.493659 -19.166315 0.000000 0.000000 0.000000 -7.125000 0.000000 0.000000 -4.230414 50.771181 0.602345 0.000000 0.000000 0.000000 -0.148430 -2.292224 38.521464 -44.342910 -50.442382 -21.731027 -16.984692 -6.380533 -14.339304 0.000000 0.000000 0.000000 7.125000 0.000000 0.000000 7.142445 15.095161 5.077723
5.232263 16.902937 1.233590 49.679754 -81.890091 -38.433974 0.000000 0.000000 0.000000 -3.742232 -13.322682 -35.044240 2.022794 8.910957 25.518759 -0.212823 14.048090 -17.331640 0.500051 -4.533213 -12.581817 0.000000 0.000000 0.000000 29.417106 0.900516 14.071534 -0.057126 -1.410160 3.879864 -0.560698 -0.831724 -14.444594 -0.322343 -3.647575 10.087455 -0.472691 1.088036 5.612050 0.482935 1.437738 -1.463520 0.627190 0.732975 -4.687227 -10.956894 -5.355515 -18.448612 6.295215 -5.941336 21.000299 3.181733 -2.938605 10.291485 0.000000 0.000000 0.000000 -4.495282 9.545894 12.629907 9.072225 -15.275070 1.219391 24.172227 27.897446 -19.291996 0.000000 0.000000 0.000000 -7.125000 0.000000 0.000000 -4.149354 50.924663 0.606489 0.000000 0.000000 0.000000 -0.279189 -2.022166 38.117419 -44.419278 -50.480797 -21.789868 -17.404183 -6.507613 -14.155312 0.000000 0.000000 0.000000 7.125000 0.000000 0.000000 6.853405 15.246863 4.845659
5.155639 16.900061 1.292784 54.111890 -81.802186 -42.925923 0.000000 0.000000 0.000000 -4.209853 -13.713104 -34.862633 1.920024 8.693161 24.842898 -0.279405 14.955284 -17.969100 0.492619 -4.499989 -12.487762 0.000000 0.000000 0.000000 28.587510 0.565793 15.637291 -0.026910 -0.664267 1.827641 -0.481464 -1.018639 -13.467324 -0.299206 -3.513924 9.713358 -1.028085 1.123826 5.730083 0.451391 1.441896 -1.470333 0.903250 0.751025 -4.774911 -10.962557 -5.273891 -18.384286 6.126792 -5.789193 20.966764 3.145589 -2.889675 10.247908 0.000000 0.000000 0.000000 -4.497936 9.599691 11.684578 9.266175 -15.582983 1.271285 24.262344 27.141511 -19.564826 0.000000 0.000000 0.000000 -7.125000 0.000000 0.000000 -4.129490 51.231204 0.634582 0.000000 0.000000 0.000000 -0.408416 -1.728409 37.659398 -44.444097 -50.493229 -21.808980 -17.707805 -6.662322 -14.013919 0.000000 0.000000 0.000000 7.125000 0.000000 0.000000 6.643042 15.365471 4.678165
5.079722 16.896411 1.352341 58.067003 -81.750954 -46.947568 0.000000 0.000000 0.000000 -4.583560 -14.128715 -34.686444 1.818522 8.476523 24.171603 -0.345531 15.846845 -18.600489 0.483023 -4.456423 -12.364514 0.000000 0.000000 0.000000 27.848918 0.254531 17.075258 0.000000 0.000000 0.000000 -0.411868 -1.170542 -12.604509 -0.280304 -3.404888 9.408145 -1.506801 1.148728 5.860491 0.443155 1.438159 -1.480452 1.161082 0.763358 -4.871455 -10.963093 -5.192253 -18.314311 5.960087 -5.639723 20.930940 3.108859 -2.841428 10.202661 0.000000 0.000000 0.000000 -4.514669 9.653923 10.796532 9.466496 -15.900598 1.325246 24.328749 26.418337 -19.829959 0.000000 0.000000 0.000000 -7.125000 0.000000 0.000000 -4.131732 51.525313 0.665153 0.000000 0.000000 0.000000 -0.546143 -1.434576 37.211757 -44.456527 -50.499444 -21.818544 -18.015426 -6.821935 -13.884780 0.000000 0.000000 0.000000 7.125000 0.000000 0.000000 6.430133 15.470989 4.510874
5.009556 16.886457 1.414853 58.140132 -81.998169 -47.141916 0.000000 0.000000 0.000000 -4.193006 -14.749320 -34.554342 1.727342 8.269301 23.537461 -0.407954 16.611186 -19.182471 0.455815 -4.328701 -12.003689 0.000000 0.000000 0.000000 27.850909 0.134197 17.473289 0.000000 0.000000 0.000000 -0.420716 -1.037511 -12.673126 -0.295877 -3.496156 9.663500 -1.361515 1.085022 6.091603 0.624584 1.370161 -1.517481 1.270577 0.729160 -5.040100 -10.921905 -5.110497 -18.198357 5.807370 -5.512001 20.876480 3.067361 -2.798736 10.143821 0.000000 0.000000 0.000000 -4.645975 9.711701 10.374656 9.718666 -16.297169 1.396031 24.202177 25.961776 -20.032447 0.000000 0.000000 0.000000 -7.125000 0.000000 0.000000 -4.313870 51.718246 0.715897 0.000000 0.000000 0.000000 -0.753056 -1.140112 36.848587 -44.368135 -50.455071 -21.750414 -18.355590 -7.021459 -13.855361 0.000000 0.000000 0.000000 7.125000 0.000000 0.000000 6.196499 15.469971 4.345238
4.939391 16.876503 1.477364 58.213262 -82.245384 -47.336264 0.000000 0.000000 0.000000 -3.802452 -15.369924 -34.422240 1.636163 8.062079 22.903320 -0.470378 17.375528 -19.764454 0.428607 -4.200979 -11.642864 0.000000 0.000000 0.000000 27.852899 0.013864 17.871320 0.000000 0.000000 0.000000 -0.429564 -0.904480 -12.741743 -0.311449 -3.587424 9.918856 -1.216230 1.021316 6.322715 0.806014 1.302164 -1.554511 1.380072 0.694962 -5.208744 -10.880717 -5.028741 -18.082403 5.654652 -5.384279 20.822020 3.025864 -2.756044 10.084981 0.000000 0.000000 0.000000 -4.777280 9.769479 9.952779 9.970837 -16.693740 1.466816 24.075605 25.505215 -20.234936 0.000000 0.000000 0.000000 -7.125000 0.000000 0.000000 -4.496008 51.911178 0.766641 0.000000 0.000000 0.000000 -0.959968 -0.845647 36.485418 -44.279742 -50.410698 -21.682284 -18.695754 -7.220983 -13.825941 0.000000 0.000000 0.000000 7.125000 0.000000 0.000000 5.962865 15.468954 4.179602
4.873282 16.864558 1.534016 56.037330 -82.637329 -45.166497 0.000000 0.000000 0.000000 -3.104861 -15.838775 -34.586920 1.562525 7.885621 22.368568 -0.512329 17.807064 -20.045973 0.411278 -4.115965 -11.403254 0.000000 0.000000 0.000000 28.177177 -0.113870 18.072034 0.000000 0.000000 0.000000 -0.432403 -0.748799 -12.716791 -0.333671 -3.709606 10.261432 -0.801207 0.957985 6.470513 1.023955 1.261775 -1.595972 1.375415 0.665196 -5.330811 -10.849333 -4.984885 -18.065201 5.650006 -5.329541 20.759071 3.026887 -2.728077 10.052849 0.000000 0.000000 0.000000 -4.810773 9.723509 9.570344 10.243779 -17.118633 1.547104 24.263846 25.186283 -20.271848 0.000000 0.000000 0.000000 -7.125000 0.000000 0.000000 -4.315478 51.984474 0.742898 0.000000 0.000000 0.000000 -1.080186 -0.616580 36.053810 -44.145110 -50.342510 -21.578657 -19.104320 -7.469527 -13.776350 0.000000 0.000000 0.000000 7.125000 0.000000 0.000000 5.681490 15.481872 3.978995
4.807895 16.852259 1.589626 53.461565 -83.055002 -42.576443 0.000000 0.000000 0.000000 -2.352685 -16.280648 -34.804362 1.492006 7.714631 21.851486 -0.550641 18.179436 -20.274076 0.395705 -4.038545 -11.185193 0.000000 0.000000 0.000000 28.558751 -0.242919 18.237670 0.000000 0.000000 0.000000 -0.434172 -0.589091 -12.675205 -0.357074 -3.837283 10.619514 -0.338232 0.894722 6.603500 1.248387 1.226294 -1.638222 1.350463 0.636219 -5.444597 -10.819692 -4.947767 -18.065554 5.671683 -5.287778 20.694613 3.035470 -2.702727 10.025464 0.000000 0.000000 0.000000 -4.826876 9.659095 9.194920 10.520414 -17.548562 1.629081 24.508053 24.891819 -20.279325 0.000000 0.000000 0.000000 -7.125000 0.000000 0.000000 -4.070475 52.036500 0.705913 0.000000 0.000000 0.000000 -1.184991 -0.399138 35.610034 -44.002258 -50.270088 -21.468720 -19.525047 -7.726784 -13.723173 0.000000 0.000000 0.000000 7.125000 0.000000 0.000000 5.391627 15.497267 3.772171
4.732325 16.848294 1.649221 55.096525 -83.164895 -44.335195 0.000000 0.000000 0.000000 -2.233703 -16.946729 -34.598338 1.436253 7.576118 21.434281 -0.614684 18.799767 -20.707871 0.389873 -4.009565 -11.103573 0.000000 0.000000 0.000000 28.255174 -0.312095 18.691268 0.000000 0.000000 0.000000 -0.437218 -0.342737 -12.624296 -0.380243 -3.958424 10.959912 -0.365184 0.943783 6.750862 1.273977 1.289335 -1.576662 1.383067 0.668391 -5.467310 -10.788566 -4.944949 -18.108281 5.686460 -5.287658 20.642838 3.034729 -2.696441 10.014200 0.000000 0.000000 0.000000 -4.720966 9.570773 8.428246 10.799185 -17.978542 1.714366 24.754005 24.301580 -20.438166 0.000000 0.000000 0.000000 -7.125000 0.000000 0.000000 -3.863703 52.251090 0.689085 0.000000 0.000000 0.000000 -1.261592 -0.220423 34.996377 -43.819481 -50.176442 -21.328337 -19.714820 -7.893750 -13.668694 0.000000 0.000000 0.000000 7.125000 0.000000 0.000000 5.259847 15.536180 3.674573
4.649640 16.850152 1.711600 59.673592 -83.059735 -49.132535 0.000000 0.000000 0.000000 -2.557145 -17.769468 -34.096430 1.390819 7.460297 21.086861 -0.696706 19.593351 -21.285385 0.390846 -4.014431 -11.117288 0.000000 0.000000 0.000000 27.472871 -0.339435 19.346071 0.000000 0.000000 0.000000 -0.441155 -0.035841 -12.566872 -0.403248 -4.074998 11.287954 -0.734459 1.071328 6.908270 1.160633 1.421216 -1.442570 1.455887 0.743290 -5.426387 -10.756404 -4.966096 -18.180614 5.696414 -5.316636 20.599925 3.027473 -2.703475 10.014200 0.000000 0.000000 0.000000 -4.529804 9.465746 7.388198 11.079448 -18.408559 1.801962 25.001176 23.504678 -20.702767 0.000000 0.000000 0.000000 -7.125000 0.000000 0.000000 -3.683645 52.579265 0.686342 0.000000 0.000000 0.000000 -1.318485 -0.068767 34.264022 -43.608809 -50.067964 -21.166683 -19.743222 -7.997626 -13.613305 0.000000 0.000000 0.000000 7.125000 0.000000 0.000000 5.238523 15.591525 3.653293
4.568174 16.850456 1.775315 63.242694 -82.989463 -52.913283 0.000000 0.000000 0.000000 -2.889548 -18.333269 -33.718022 1.350133 7.355616 20.773341 -0.751626 20.096785 -21.616568 0.401406 -4.065833 -11.262214 0.000000 0.000000 0.000000 26.813167 -0.407139 19.951737 0.000000 0.000000 0.000000 -0.441418 0.245782 -12.470058 -0.414662 -4.133169 11.451627 -0.962064 1.166818 7.071095 1.076788 1.523918 -1.330990 1.482738 0.799642 -5.408457 -10.738024 -4.982653 -18.231146 5.694313 -5.336100 20.571216 3.019942 -2.709435 10.014490 0.000000 0.000000 0.000000 -4.339425 9.384989 6.380627 11.365913 -18.845983 1.893116 25.066736 22.638205 -21.014529 0.000000 0.000000 0.000000 -7.125000 0.000000 0.000000 -3.705139 52.923228 0.725662 0.000000 0.000000 0.000000 -1.364383 0.084632 33.526612 -43.336016 -49.925718 -20.957883 -19.681749 -8.095737 -13.583827 0.000000 0.000000 0.000000 7.125000 0.000000 0.000000 5.279726 15.628308 3.678085
